<svg width="784" height="1824" viewBox="0 0 784 1824" fill="none" xmlns="http://www.w3.org/2000/svg">
<g filter="url(#filter0_f_309_127)">
<path fill-rule="evenodd" clip-rule="evenodd" d="M-506.227 1003.44C-511.468 906.576 -568.117 807.691 -533.17 718.83C-498.249 630.035 -399.669 601.487 -327.025 547.778C-261.208 499.116 -198.08 452.41 -125.526 417.439C-33.1592 372.92 68.5946 260.091 156.662 314.647C250.434 372.738 193.5 549.108 250.298 650.256C296.632 732.768 409.67 747.098 448.446 834.266C490.533 928.878 490.56 1041.38 470.06 1144.28C447.904 1255.49 421.115 1393.48 327.666 1440.49C229.067 1490.09 121.227 1358.71 13.7731 1373.8C-88.111 1388.12 -155.139 1531.93 -257.54 1522.69C-358.779 1513.57 -452.542 1427.06 -500.24 1327.47C-546.757 1230.34 -500.291 1113.15 -506.227 1003.44Z" fill="url(#paint0_linear_309_127)" fill-opacity="0.2"/>
</g>
<defs>
<filter id="filter0_f_309_127" x="-844.489" y="0.0595703" width="1627.93" height="1823.06" filterUnits="userSpaceOnUse" color-interpolation-filters="sRGB">
<feFlood flood-opacity="0" result="BackgroundImageFix"/>
<feBlend mode="normal" in="SourceGraphic" in2="BackgroundImageFix" result="shape"/>
<feGaussianBlur stdDeviation="150" result="effect1_foregroundBlur_309_127"/>
</filter>
<linearGradient id="paint0_linear_309_127" x1="117.86" y1="2012.9" x2="1069.09" y2="856.593" gradientUnits="userSpaceOnUse">
<stop stop-color="#E25544"/>
<stop offset="1" stop-color="#9E5DFF"/>
</linearGradient>
</defs>
</svg>
