<svg width="775" height="1836" viewBox="0 0 775 1836" fill="none" xmlns="http://www.w3.org/2000/svg">
<g filter="url(#filter0_f_309_126)">
<path fill-rule="evenodd" clip-rule="evenodd" d="M1692.51 927.927C1678.93 1029.44 1736.91 1143.5 1668.79 1228.54C1600.71 1313.52 1456.51 1323.07 1343.19 1363.99C1240.52 1401.07 1142.03 1436.66 1032.89 1458.17C893.932 1485.55 727.084 1581.86 615.544 1507.37C496.779 1428.06 614.586 1256.74 556.892 1140.3C509.828 1045.31 354.635 1007.46 319.16 909.182C280.655 802.51 304.909 685.838 355.835 583.303C410.872 472.489 478.18 334.839 619.186 305.1C767.963 273.723 890.604 431.893 1044.33 438.096C1190.09 443.977 1315 308.48 1456.4 338.88C1596.19 368.935 1708.81 477.713 1754.09 590.693C1798.26 700.874 1707.89 812.945 1692.51 927.927Z" fill="url(#paint0_linear_309_126)" fill-opacity="0.2"/>
</g>
<defs>
<filter id="filter0_f_309_126" x="0.231133" y="0.985352" width="2065.91" height="1834.08" filterUnits="userSpaceOnUse" color-interpolation-filters="sRGB">
<feFlood flood-opacity="0" result="BackgroundImageFix"/>
<feBlend mode="normal" in="SourceGraphic" in2="BackgroundImageFix" result="shape"/>
<feGaussianBlur stdDeviation="150" result="effect1_foregroundBlur_309_126"/>
</filter>
<linearGradient id="paint0_linear_309_126" x1="1036.57" y1="-245.808" x2="-137.019" y2="1112.41" gradientUnits="userSpaceOnUse">
<stop stop-color="#E25544"/>
<stop offset="1" stop-color="#9E5DFF"/>
</linearGradient>
</defs>
</svg>
