<svg width="163" height="173" viewBox="0 0 163 173" fill="none" xmlns="http://www.w3.org/2000/svg">
<path d="M135.137 56.6034L99.4809 18.7597C98.7652 17.9991 97.7941 17.5713 96.7812 17.5703H35.6562C33.2921 17.5703 31.0248 18.5671 29.3531 20.3414C27.6813 22.1156 26.7422 24.5221 26.7422 27.0312V75.6875C26.7422 76.7629 27.1447 77.7942 27.8611 78.5546C28.5776 79.315 29.5493 79.7422 30.5625 79.7422C31.5757 79.7422 32.5474 79.315 33.2639 78.5546C33.9803 77.7942 34.3828 76.7629 34.3828 75.6875V27.0312C34.3828 26.6728 34.517 26.329 34.7558 26.0755C34.9946 25.8221 35.3185 25.6797 35.6562 25.6797H92.9609V59.4688C92.9609 60.5441 93.3634 61.5754 94.0799 62.3358C94.7963 63.0962 95.768 63.5234 96.7812 63.5234H128.617V145.969C128.617 146.327 128.483 146.671 128.244 146.924C128.005 147.178 127.681 147.32 127.344 147.32H112.062C111.049 147.32 110.078 147.747 109.361 148.508C108.645 149.268 108.242 150.3 108.242 151.375C108.242 152.45 108.645 153.482 109.361 154.242C110.078 155.003 111.049 155.43 112.062 155.43H127.344C129.708 155.43 131.975 154.433 133.647 152.659C135.319 150.884 136.258 148.478 136.258 145.969V59.4688C136.257 58.3937 135.854 57.3631 135.137 56.6034ZM100.602 31.4103L123.218 55.4141H100.602V31.4103ZM92.8527 132.494C92.6739 134.367 92.1068 136.175 91.192 137.789C90.2772 139.402 89.0375 140.781 87.5616 141.826C84.4926 143.982 80.6404 144.624 77.1448 144.624C73.988 144.593 70.8475 144.139 67.7978 143.272C67.3145 143.129 66.8626 142.886 66.4677 142.557C66.0729 142.229 65.7429 141.821 65.4967 141.357C64.9993 140.419 64.8732 139.311 65.1459 138.275C65.4186 137.239 66.0679 136.361 66.9509 135.833C67.8339 135.305 68.8784 135.171 69.8544 135.46C72.2166 136.136 79.7745 137.562 83.3465 135.041C83.9069 134.638 84.3712 134.103 84.7028 133.476C85.0343 132.85 85.2239 132.15 85.2566 131.433C85.6259 128.439 83.9323 127.202 76.2152 124.837C70.2874 123.019 61.3351 120.276 62.4812 110.686C62.6554 108.854 63.2064 107.085 64.0954 105.504C64.9844 103.923 66.1896 102.569 67.6259 101.536C74.6998 96.4745 86.2054 99.5088 87.4979 99.8602C88.4567 100.154 89.2692 100.834 89.7616 101.755C90.254 102.677 90.3871 103.766 90.1326 104.79C89.878 105.814 89.256 106.692 88.3995 107.236C87.543 107.779 86.5201 107.946 85.5495 107.699C83.1427 107.023 75.4575 105.672 71.8919 108.267C71.3583 108.651 70.9152 109.161 70.5972 109.756C70.2792 110.351 70.0947 111.017 70.0582 111.7C69.7971 113.876 71.4207 114.93 78.3355 117.045C84.6327 118.998 94.1325 121.911 92.8527 132.494ZM49.6641 102.719V128.398C49.6641 132.7 48.0541 136.825 45.1883 139.867C42.3225 142.908 38.4357 144.617 34.3828 144.617C30.33 144.617 26.4431 142.908 23.5773 139.867C20.7115 136.825 19.1016 132.7 19.1016 128.398C19.1016 127.323 19.5041 126.292 20.2205 125.531C20.937 124.771 21.9087 124.344 22.9219 124.344C23.9351 124.344 24.9068 124.771 25.6232 125.531C26.3397 126.292 26.7422 127.323 26.7422 128.398C26.7422 130.549 27.5472 132.612 28.9801 134.133C30.413 135.653 32.3564 136.508 34.3828 136.508C36.4092 136.508 38.3527 135.653 39.7856 134.133C41.2184 132.612 42.0234 130.549 42.0234 128.398V102.719C42.0234 101.643 42.4259 100.612 43.1424 99.8516C43.8588 99.0912 44.8305 98.6641 45.8438 98.6641C46.857 98.6641 47.8287 99.0912 48.5451 99.8516C49.2616 100.612 49.6641 101.643 49.6641 102.719Z" fill="#F8F8F8"/>
</svg>
