<svg width="155" height="155" viewBox="0 0 155 155" fill="none" xmlns="http://www.w3.org/2000/svg">
<g clip-path="url(#clip0_309_192)">
<path d="M62 25.8334H72.3333M46.5 41.3334V15.5001C46.5 12.7595 47.5887 10.1312 49.5266 8.19331C51.4644 6.25544 54.0928 5.16675 56.8333 5.16675H98.1667C100.907 5.16675 103.536 6.25544 105.473 8.19331C107.411 10.1312 108.5 12.7595 108.5 15.5001V67.1667C108.5 69.9073 107.411 72.5356 105.473 74.4735C103.536 76.4114 100.907 77.5001 98.1667 77.5001H56.8333C54.0928 77.5001 51.4644 78.5888 49.5266 80.5266C47.5887 82.4645 46.5 85.0928 46.5 87.8334V139.5C46.5 142.241 47.5887 144.869 49.5266 146.807C51.4644 148.745 54.0928 149.833 56.8333 149.833H98.1667C100.907 149.833 103.536 148.745 105.473 146.807C107.411 144.869 108.5 142.241 108.5 139.5V113.667M82.6667 46.5001H15.5C12.7594 46.5001 10.1311 47.5888 8.19324 49.5266C6.25536 51.4645 5.16667 54.0928 5.16667 56.8334V108.5C5.16667 111.241 6.25536 113.869 8.19324 115.807C10.1311 117.745 12.7594 118.833 15.5 118.833H46.5M72.3333 108.5H139.5C142.241 108.5 144.869 107.411 146.807 105.474C148.745 103.536 149.833 100.907 149.833 98.1667V46.5001C149.833 43.7595 148.745 41.1312 146.807 39.1933C144.869 37.2554 142.241 36.1667 139.5 36.1667H108.5M82.6667 129.167H93" stroke="#F8F8F8" stroke-width="9"/>
</g>
<defs>
<clipPath id="clip0_309_192">
<rect width="155" height="155" fill="white"/>
</clipPath>
</defs>
</svg>
