<svg width="178" height="177" viewBox="0 0 178 177" fill="none" xmlns="http://www.w3.org/2000/svg">
<path d="M172.067 89.4913C172.067 109.044 134.877 124.891 89 124.891C43.1235 124.891 5.93335 109.044 5.93335 89.4913C5.93335 69.9387 43.1235 54.0913 89 54.0913C134.877 54.0913 172.067 69.9387 172.067 89.4913Z" stroke="#F8F8F8" stroke-width="7"/>
<path d="M49.4366 162.12C66.7263 171.442 98.4459 146.462 120.304 106.353C142.151 66.2334 145.853 26.1724 128.563 16.8622C111.274 7.5402 79.5542 32.5208 57.6958 72.629C35.8492 112.749 32.1468 152.81 49.4366 162.12Z" stroke="#F8F8F8" stroke-width="7"/>
<path d="M128.563 162.12C111.274 171.442 79.5542 146.462 57.6958 106.353C35.8492 66.2334 32.1468 26.1724 49.4366 16.8622C66.7263 7.5402 98.4459 32.5208 120.304 72.629C142.151 112.749 145.853 152.81 128.563 162.12Z" stroke="#F8F8F8" stroke-width="7"/>
<path d="M77.1334 89.4912C77.1334 92.6207 78.3836 95.6221 80.609 97.835C82.8345 100.048 85.8528 101.291 89 101.291C92.1473 101.291 95.1656 100.048 97.391 97.835C99.6165 95.6221 100.867 92.6207 100.867 89.4912C100.867 86.3616 99.6165 83.3602 97.391 81.1473C95.1656 78.9344 92.1473 77.6912 89 77.6912C85.8528 77.6912 82.8345 78.9344 80.609 81.1473C78.3836 83.3602 77.1334 86.3616 77.1334 89.4912Z" stroke="#F8F8F8" stroke-width="7"/>
</svg>
