<svg width="157" height="157" viewBox="0 0 157 157" fill="none" xmlns="http://www.w3.org/2000/svg">
<path d="M4.625 78.5C4.625 88.2014 6.53583 97.8078 10.2484 106.771C13.961 115.734 19.4026 123.878 26.2625 130.738C33.1224 137.597 41.2663 143.039 50.2293 146.752C59.1922 150.464 68.7986 152.375 78.5 152.375C88.2014 152.375 97.8078 150.464 106.771 146.752C115.734 143.039 123.878 137.597 130.738 130.738C137.597 123.878 143.039 115.734 146.752 106.771C150.464 97.8078 152.375 88.2014 152.375 78.5C152.375 68.7986 150.464 59.1922 146.752 50.2293C143.039 41.2663 137.597 33.1224 130.738 26.2625C123.878 19.4026 115.734 13.961 106.771 10.2484C97.8078 6.53583 88.2014 4.625 78.5 4.625C68.7986 4.625 59.1922 6.53583 50.2293 10.2484C41.2663 13.961 33.1224 19.4026 26.2625 26.2625C19.4026 33.1224 13.961 41.2663 10.2484 50.2293C6.53583 59.1922 4.625 68.7986 4.625 78.5Z" stroke="#F8F8F8" stroke-width="9" stroke-linecap="round" stroke-linejoin="round"/>
<path d="M78.5 66.3764C98.6925 59.5963 111.333 59.5963 111.333 48.6874C111.333 37.4749 100.277 37.4749 88.8835 37.4749C73.2056 37.4749 61.3692 41.4969 51.6423 51.823C44.6816 59.2269 43.2123 71.9252 50.3864 78.968C58.3731 86.8151 76.7023 93.6527 74.0593 107.64C72.1467 117.777 62.0012 122.603 52.578 117.506C46.1591 114.026 48.8515 103.174 57.7165 96.8868C66.5815 90.5992 80.8804 88.7441 91.3706 94.9168C99.4148 99.6366 99.9565 109.068 94.933 112.918" stroke="#F8F8F8" stroke-width="9" stroke-linecap="round" stroke-linejoin="round"/>
</svg>
