<svg width="178" height="178" viewBox="0 0 178 178" fill="none" xmlns="http://www.w3.org/2000/svg">
<path d="M89 35.6001C66.8449 35.6001 53.0084 47.4668 47.4667 71.2001C55.7733 59.3334 65.4684 54.8834 76.54 57.8501C82.8649 59.547 87.3743 64.4598 92.3701 69.8948C100.523 78.7473 109.945 89.0001 130.533 89.0001C152.688 89.0001 166.525 77.1334 172.067 53.4001C163.76 65.2668 154.065 69.7168 142.993 66.7501C136.668 65.0532 132.159 60.1404 127.163 54.7054C119.011 45.8529 109.589 35.6001 89 35.6001ZM47.4667 89.0001C25.3116 89.0001 11.4751 100.867 5.93333 124.6C14.24 112.733 23.9351 108.283 35.0067 111.25C41.3316 112.947 45.8409 117.86 50.8368 123.295C58.9892 132.147 68.4113 142.4 89 142.4C111.155 142.4 124.992 130.533 130.533 106.8C122.227 118.667 112.532 123.117 101.46 120.15C95.1351 118.453 90.6257 113.54 85.6299 108.105C77.4775 99.2529 68.0553 89.0001 47.4667 89.0001Z" stroke="#F8F8F8" stroke-width="8" stroke-linejoin="round"/>
</svg>
