<svg width="144" height="144" viewBox="0 0 144 144" fill="none" xmlns="http://www.w3.org/2000/svg">
<g clip-path="url(#clip0_309_192)">
<path d="M120 76.8V75.1968C120 68.1312 114.269 62.4 107.203 62.4H96C92.1809 62.4 88.5182 63.9172 85.8177 66.6177C83.1171 69.3182 81.6 72.9809 81.6 76.8C81.6 80.6192 83.1171 84.2819 85.8177 86.9824C88.5182 89.6829 92.1809 91.2 96 91.2H105.6C109.419 91.2 113.082 92.7172 115.782 95.4177C118.483 98.1182 120 101.781 120 105.6C120 109.419 118.483 113.082 115.782 115.782C113.082 118.483 109.419 120 105.6 120H96C92.1809 120 88.5182 118.483 85.8177 115.782C83.1171 113.082 81.6 109.419 81.6 105.6M76.8 62.4H28.8M52.8 62.4V124.8M4.8 4.80005H139.2V139.2H4.8V4.80005Z" stroke="#F8F8F8" stroke-width="8" stroke-linejoin="round"/>
</g>
<defs>
<clipPath id="clip0_309_192">
<rect width="144" height="144" fill="white"/>
</clipPath>
</defs>
</svg>
