<svg width="100%" height="100%" viewBox="0 0 1718 1081" fill="none" preserveAspectRatio="none" xmlns="http://www.w3.org/2000/svg">
<path d="M1635 546V548H1635.06L1635.11 547.997L1635 546ZM89 546V544H88.9412L88.8826 544.003L89 546ZM12.5 0.452994L0.952994 12L12.5 23.547L24.047 12L12.5 0.452994ZM1635 544C1633.82 544 1632.64 544 1631.46 544C1630.28 544 1629.09 544 1627.91 544C1626.73 544 1625.54 544 1624.35 544C1623.17 544 1621.98 544 1620.79 544C1619.6 544 1618.41 544 1617.22 544C1616.02 544 1614.83 544 1613.64 544C1612.44 544 1611.25 544 1610.05 544C1608.85 544 1607.66 544 1606.46 544C1605.26 544 1604.06 544 1602.85 544C1601.65 544 1600.45 544 1599.25 544C1598.04 544 1596.84 544 1595.63 544C1594.42 544 1593.22 544 1592.01 544C1590.8 544 1589.59 544 1588.38 544C1587.17 544 1585.95 544 1584.74 544C1583.53 544 1582.31 544 1581.1 544C1579.88 544 1578.66 544 1577.45 544C1576.23 544 1575.01 544 1573.79 544C1572.57 544 1571.35 544 1570.12 544C1568.9 544 1567.68 544 1566.45 544C1565.23 544 1564 544 1562.77 544C1561.55 544 1560.32 544 1559.09 544C1557.86 544 1556.63 544 1555.4 544C1554.17 544 1552.94 544 1551.7 544C1550.47 544 1549.23 544 1548 544C1546.76 544 1545.53 544 1544.29 544C1543.05 544 1541.81 544 1540.57 544C1539.33 544 1538.09 544 1536.85 544C1535.61 544 1534.36 544 1533.12 544C1531.88 544 1530.63 544 1529.38 544C1528.14 544 1526.89 544 1525.64 544C1524.4 544 1523.15 544 1521.9 544C1520.65 544 1519.39 544 1518.14 544C1516.89 544 1515.64 544 1514.38 544C1513.13 544 1511.87 544 1510.62 544C1509.36 544 1508.11 544 1506.85 544C1505.59 544 1504.33 544 1503.07 544C1501.81 544 1500.55 544 1499.29 544C1498.03 544 1496.76 544 1495.5 544C1494.24 544 1492.97 544 1491.71 544C1490.44 544 1489.18 544 1487.91 544C1486.64 544 1485.37 544 1484.1 544C1482.84 544 1481.57 544 1480.29 544C1479.02 544 1477.75 544 1476.48 544C1475.21 544 1473.93 544 1472.66 544C1471.38 544 1470.11 544 1468.83 544C1467.56 544 1466.28 544 1465 544C1463.72 544 1462.45 544 1461.17 544C1459.89 544 1458.61 544 1457.33 544C1456.04 544 1454.76 544 1453.48 544C1452.2 544 1450.91 544 1449.63 544C1448.34 544 1447.06 544 1445.77 544C1444.49 544 1443.2 544 1441.91 544C1440.62 544 1439.34 544 1438.05 544C1436.76 544 1435.47 544 1434.18 544C1432.89 544 1431.59 544 1430.3 544C1429.01 544 1427.72 544 1426.42 544C1425.13 544 1423.83 544 1422.54 544C1421.24 544 1419.95 544 1418.65 544C1417.35 544 1416.05 544 1414.76 544C1413.46 544 1412.16 544 1410.86 544C1409.56 544 1408.26 544 1406.96 544C1405.66 544 1404.35 544 1403.05 544C1401.75 544 1400.45 544 1399.14 544C1397.84 544 1396.53 544 1395.23 544C1393.92 544 1392.62 544 1391.31 544C1390 544 1388.7 544 1387.39 544C1386.08 544 1384.77 544 1383.46 544C1382.15 544 1380.84 544 1379.53 544C1378.22 544 1376.91 544 1375.6 544C1374.29 544 1372.97 544 1371.66 544C1370.35 544 1369.03 544 1367.72 544C1366.4 544 1365.09 544 1363.77 544C1362.46 544 1361.14 544 1359.82 544C1358.51 544 1357.19 544 1355.87 544C1354.55 544 1353.23 544 1351.92 544C1350.6 544 1349.28 544 1347.96 544C1346.64 544 1345.31 544 1343.99 544C1342.67 544 1341.35 544 1340.03 544C1338.7 544 1337.38 544 1336.06 544C1334.73 544 1333.41 544 1332.09 544C1330.76 544 1329.44 544 1328.11 544C1326.78 544 1325.46 544 1324.13 544C1322.8 544 1321.48 544 1320.15 544C1318.82 544 1317.49 544 1316.16 544C1314.83 544 1313.51 544 1312.18 544C1310.85 544 1309.52 544 1308.19 544C1306.85 544 1305.52 544 1304.19 544C1302.86 544 1301.53 544 1300.2 544C1298.86 544 1297.53 544 1296.2 544C1294.86 544 1293.53 544 1292.19 544C1290.86 544 1289.53 544 1288.19 544C1286.85 544 1285.52 544 1284.18 544C1282.85 544 1281.51 544 1280.17 544C1278.84 544 1277.5 544 1276.16 544C1274.82 544 1273.49 544 1272.15 544C1270.81 544 1269.47 544 1268.13 544C1266.79 544 1265.45 544 1264.11 544C1262.77 544 1261.43 544 1260.09 544C1258.75 544 1257.41 544 1256.07 544C1254.73 544 1253.39 544 1252.04 544C1250.7 544 1249.36 544 1248.02 544C1246.67 544 1245.33 544 1243.99 544C1242.64 544 1241.3 544 1239.96 544C1238.61 544 1237.27 544 1235.92 544C1234.58 544 1233.23 544 1231.89 544C1230.54 544 1229.2 544 1227.85 544C1226.51 544 1225.16 544 1223.82 544C1222.47 544 1221.12 544 1219.78 544C1218.43 544 1217.08 544 1215.73 544C1214.39 544 1213.04 544 1211.69 544C1210.34 544 1209 544 1207.65 544C1206.3 544 1204.95 544 1203.6 544C1202.25 544 1200.9 544 1199.55 544C1198.21 544 1196.86 544 1195.51 544C1194.16 544 1192.81 544 1191.46 544C1190.11 544 1188.76 544 1187.41 544C1186.06 544 1184.71 544 1183.36 544C1182 544 1180.65 544 1179.3 544C1177.95 544 1176.6 544 1175.25 544C1173.9 544 1172.55 544 1171.19 544C1169.84 544 1168.49 544 1167.14 544C1165.79 544 1164.43 544 1163.08 544C1161.73 544 1160.38 544 1159.03 544C1157.67 544 1156.32 544 1154.97 544C1153.61 544 1152.26 544 1150.91 544C1149.56 544 1148.2 544 1146.85 544C1145.5 544 1144.14 544 1142.79 544C1141.44 544 1140.08 544 1138.73 544C1137.38 544 1136.02 544 1134.67 544C1133.32 544 1131.96 544 1130.61 544C1129.26 544 1127.9 544 1126.55 544C1125.19 544 1123.84 544 1122.49 544C1121.13 544 1119.78 544 1118.42 544C1117.07 544 1115.72 544 1114.36 544C1113.01 544 1111.66 544 1110.3 544C1108.95 544 1107.59 544 1106.24 544C1104.89 544 1103.53 544 1102.18 544C1100.82 544 1099.47 544 1098.12 544C1096.76 544 1095.41 544 1094.05 544C1092.7 544 1091.35 544 1089.99 544C1088.64 544 1087.29 544 1085.93 544C1084.58 544 1083.23 544 1081.87 544C1080.52 544 1079.16 544 1077.81 544C1076.46 544 1075.1 544 1073.75 544C1072.4 544 1071.04 544 1069.69 544C1068.34 544 1066.99 544 1065.63 544C1064.28 544 1062.93 544 1061.57 544C1060.22 544 1058.87 544 1057.52 544C1056.16 544 1054.81 544 1053.46 544C1052.11 544 1050.76 544 1049.4 544C1048.05 544 1046.7 544 1045.35 544C1044 544 1042.65 544 1041.29 544C1039.94 544 1038.59 544 1037.24 544C1035.89 544 1034.54 544 1033.19 544C1031.84 544 1030.49 544 1029.14 544C1027.79 544 1026.44 544 1025.09 544C1023.74 544 1022.39 544 1021.04 544C1019.69 544 1018.34 544 1016.99 544C1015.64 544 1014.29 544 1012.94 544C1011.6 544 1010.25 544 1008.9 544C1007.55 544 1006.2 544 1004.86 544C1003.51 544 1002.16 544 1000.81 544C999.467 544 998.12 544 996.773 544C995.426 544 994.08 544 992.734 544C991.388 544 990.042 544 988.697 544C987.351 544 986.006 544 984.661 544C983.316 544 981.971 544 980.627 544C979.283 544 977.938 544 976.595 544C975.251 544 973.908 544 972.564 544C971.221 544 969.879 544 968.536 544C967.194 544 965.852 544 964.51 544C963.168 544 961.826 544 960.485 544C959.144 544 957.804 544 956.463 544C955.123 544 953.783 544 952.443 544C951.103 544 949.764 544 948.425 544C947.086 544 945.748 544 944.41 544C943.071 544 941.734 544 940.396 544C939.059 544 937.722 544 936.385 544C935.049 544 933.713 544 932.377 544C931.041 544 929.706 544 928.371 544C927.036 544 925.702 544 924.368 544C923.034 544 921.7 544 920.367 544C919.034 544 917.701 544 916.369 544C915.037 544 913.705 544 912.374 544C911.042 544 909.711 544 908.381 544C907.051 544 905.721 544 904.391 544C903.062 544 901.733 544 900.404 544C899.076 544 897.748 544 896.421 544C895.093 544 893.766 544 892.44 544C891.113 544 889.787 544 888.462 544C887.137 544 885.812 544 884.487 544C883.163 544 881.839 544 880.516 544C879.193 544 877.87 544 876.548 544C875.225 544 873.904 544 872.583 544C871.262 544 869.941 544 868.621 544C867.301 544 865.982 544 864.663 544C863.344 544 862.026 544 860.708 544C859.391 544 858.074 544 856.757 544C855.441 544 854.125 544 852.81 544C851.495 544 850.18 544 848.866 544C847.552 544 846.238 544 844.926 544C843.613 544 842.301 544 840.989 544C839.678 544 838.367 544 837.057 544C835.746 544 834.437 544 833.128 544C831.819 544 830.511 544 829.203 544C827.896 544 826.589 544 825.282 544C823.976 544 822.67 544 821.366 544C820.061 544 818.756 544 817.453 544C816.149 544 814.846 544 813.544 544C812.242 544 810.941 544 809.64 544C808.339 544 807.039 544 805.74 544C804.441 544 803.142 544 801.844 544C800.547 544 799.25 544 797.953 544C796.657 544 795.361 544 794.066 544C792.771 544 791.477 544 790.184 544C788.891 544 787.598 544 786.306 544C785.014 544 783.723 544 782.433 544C781.143 544 779.853 544 778.565 544C777.276 544 775.988 544 774.701 544C773.414 544 772.127 544 770.842 544C769.556 544 768.272 544 766.988 544C765.704 544 764.421 544 763.139 544C761.856 544 760.575 544 759.294 544C758.014 544 756.734 544 755.455 544C754.176 544 752.898 544 751.621 544C750.344 544 749.068 544 747.792 544C746.517 544 745.242 544 743.968 544C742.694 544 741.422 544 740.15 544C738.878 544 737.607 544 736.336 544C735.066 544 733.797 544 732.529 544C731.26 544 729.993 544 728.726 544C727.459 544 726.194 544 724.929 544C723.664 544 722.401 544 721.138 544C719.875 544 718.613 544 717.352 544C716.091 544 714.831 544 713.572 544C712.312 544 711.054 544 709.797 544C708.54 544 707.284 544 706.028 544C704.773 544 703.519 544 702.265 544C701.012 544 699.76 544 698.508 544C697.257 544 696.007 544 694.757 544C693.508 544 692.259 544 691.012 544C689.765 544 688.518 544 687.273 544C686.028 544 684.783 544 683.54 544C682.297 544 681.055 544 679.813 544C678.572 544 677.332 544 676.093 544C674.854 544 673.615 544 672.378 544C671.141 544 669.905 544 668.67 544C667.436 544 666.202 544 664.969 544C663.736 544 662.504 544 661.274 544C660.043 544 658.814 544 657.585 544C656.357 544 655.129 544 653.903 544C652.677 544 651.452 544 650.228 544C649.004 544 647.781 544 646.559 544C645.337 544 644.117 544 642.897 544C641.678 544 640.459 544 639.242 544C638.025 544 636.809 544 635.594 544C634.379 544 633.165 544 631.952 544C630.739 544 629.528 544 628.318 544C627.107 544 625.898 544 624.69 544C623.482 544 622.275 544 621.07 544C619.864 544 618.66 544 617.457 544C616.253 544 615.051 544 613.851 544C612.65 544 611.45 544 610.252 544C609.053 544 607.856 544 606.66 544C605.464 544 604.27 544 603.076 544C601.883 544 600.691 544 599.5 544C598.309 544 597.119 544 595.93 544C594.742 544 593.555 544 592.369 544C591.183 544 589.998 544 588.815 544C587.631 544 586.449 544 585.268 544C584.087 544 582.908 544 581.73 544C580.551 544 579.374 544 578.199 544C577.023 544 575.849 544 574.676 544C573.503 544 572.331 544 571.16 544C569.99 544 568.821 544 567.653 544C566.485 544 565.319 544 564.154 544C562.989 544 561.825 544 560.663 544C559.5 544 558.339 544 557.18 544C556.02 544 554.862 544 553.705 544C552.548 544 551.392 544 550.238 544C549.084 544 547.931 544 546.779 544C545.628 544 544.478 544 543.329 544C542.181 544 541.033 544 539.888 544C538.742 544 537.597 544 536.454 544C535.311 544 534.17 544 533.03 544C531.89 544 530.751 544 529.614 544C528.476 544 527.34 544 526.206 544C525.072 544 523.939 544 522.807 544C521.676 544 520.546 544 519.417 544C518.288 544 517.161 544 516.036 544C514.91 544 513.786 544 512.663 544C511.541 544 510.419 544 509.3 544C508.18 544 507.062 544 505.945 544C504.828 544 503.713 544 502.6 544C501.486 544 500.374 544 499.263 544C498.153 544 497.043 544 495.936 544C494.828 544 493.722 544 492.618 544C491.513 544 490.41 544 489.309 544C488.208 544 487.108 544 486.009 544C484.911 544 483.814 544 482.719 544C481.624 544 480.53 544 479.438 544C478.346 544 477.256 544 476.167 544C475.078 544 473.991 544 472.906 544C471.82 544 470.736 544 469.653 544C468.571 544 467.49 544 466.411 544C465.332 544 464.254 544 463.178 544C462.102 544 461.028 544 459.955 544C458.883 544 457.812 544 456.742 544C455.673 544 454.605 544 453.539 544C452.473 544 451.408 544 450.346 544C449.283 544 448.222 544 447.162 544C446.103 544 445.045 544 443.989 544C442.933 544 441.879 544 440.826 544C439.773 544 438.722 544 437.673 544C436.624 544 435.576 544 434.53 544C433.484 544 432.44 544 431.398 544C430.355 544 429.315 544 428.276 544C427.237 544 426.199 544 425.164 544C424.128 544 423.095 544 422.063 544C421.031 544 420 544 418.972 544C417.944 544 416.917 544 415.892 544C414.867 544 413.844 544 412.822 544C411.801 544 410.781 544 409.764 544C408.746 544 407.73 544 406.715 544C405.701 544 404.689 544 403.678 544C402.668 544 401.659 544 400.652 544C399.645 544 398.64 544 397.636 544C396.633 544 395.631 544 394.632 544C393.632 544 392.634 544 391.638 544C390.642 544 389.648 544 388.656 544C387.664 544 386.673 544 385.685 544C384.696 544 383.709 544 382.725 544C381.74 544 380.757 544 379.776 544C378.795 544 377.816 544 376.838 544C375.861 544 374.886 544 373.912 544C372.939 544 371.967 544 370.997 544C370.028 544 369.06 544 368.094 544C367.129 544 366.165 544 365.203 544C364.241 544 363.281 544 362.323 544C361.365 544 360.408 544 359.454 544C358.5 544 357.548 544 356.598 544C355.647 544 354.699 544 353.753 544C352.806 544 351.862 544 350.92 544C349.977 544 349.037 544 348.099 544C347.16 544 346.224 544 345.289 544C344.355 544 343.423 544 342.492 544C341.562 544 340.633 544 339.707 544C338.781 544 337.856 544 336.934 544C336.012 544 335.091 544 334.173 544C333.255 544 332.339 544 331.425 544C330.51 544 329.598 544 328.688 544C327.778 544 326.87 544 325.964 544C325.058 544 324.155 544 323.253 544C322.351 544 321.451 544 320.554 544C319.656 544 318.76 544 317.867 544C316.974 544 316.082 544 315.193 544C314.304 544 313.417 544 312.532 544C311.647 544 310.764 544 309.883 544C309.002 544 308.124 544 307.247 544C306.371 544 305.496 544 304.624 544C303.752 544 302.882 544 302.014 544C301.146 544 300.28 544 299.416 544C298.553 544 297.691 544 296.832 544C295.973 544 295.116 544 294.261 544C293.406 544 292.553 544 291.703 544C290.852 544 290.004 544 289.157 544C288.311 544 287.467 544 286.626 544C285.784 544 284.944 544 284.107 544C283.27 544 282.435 544 281.602 544C280.769 544 279.938 544 279.11 544C278.281 544 277.455 544 276.631 544C275.807 544 274.986 544 274.166 544C273.347 544 272.53 544 271.715 544C270.9 544 270.087 544 269.277 544C268.467 544 267.659 544 266.853 544C266.047 544 265.244 544 264.443 544C263.641 544 262.843 544 262.046 544C261.249 544 260.455 544 259.663 544C258.871 544 258.082 544 257.294 544C256.507 544 255.722 544 254.939 544C254.157 544 253.376 544 252.598 544C251.82 544 251.045 544 250.271 544C249.498 544 248.727 544 247.959 544C247.19 544 246.424 544 245.66 544C244.896 544 244.135 544 243.376 544C242.617 544 241.86 544 241.106 544C240.351 544 239.599 544 238.85 544C238.1 544 237.353 544 236.609 544C235.864 544 235.122 544 234.382 544C233.642 544 232.905 544 232.17 544C231.435 544 230.702 544 229.972 544C229.242 544 228.514 544 227.789 544C227.064 544 226.341 544 225.62 544C224.9 544 224.182 544 223.467 544C222.751 544 222.038 544 221.328 544C220.618 544 219.91 544 219.204 544C218.499 544 217.796 544 217.095 544C216.394 544 215.696 544 215.001 544C214.305 544 213.612 544 212.922 544C212.231 544 211.544 544 210.858 544C210.173 544 209.49 544 208.809 544C208.129 544 207.451 544 206.776 544C206.1 544 205.428 544 204.757 544C204.087 544 203.42 544 202.755 544C202.089 544 201.427 544 200.767 544C200.107 544 199.45 544 198.795 544C198.14 544 197.488 544 196.838 544C196.189 544 195.542 544 194.897 544C194.253 544 193.611 544 192.972 544C192.332 544 191.696 544 191.062 544C190.428 544 189.797 544 189.168 544C188.539 544 187.913 544 187.29 544C186.666 544 186.045 544 185.427 544C184.809 544 184.193 544 183.581 544C182.968 544 182.358 544 181.75 544C181.142 544 180.538 544 179.935 544C179.333 544 178.734 544 178.137 544C177.54 544 176.946 544 176.355 544C175.763 544 175.174 544 174.588 544C174.002 544 173.419 544 172.838 544C172.258 544 171.68 544 171.105 544C170.53 544 169.957 544 169.387 544C168.818 544 168.251 544 167.687 544C167.122 544 166.561 544 166.002 544C165.443 544 164.888 544 164.334 544C163.781 544 163.231 544 162.683 544C162.135 544 161.59 544 161.048 544C160.506 544 159.967 544 159.43 544C158.894 544 158.36 544 157.829 544C157.298 544 156.77 544 156.245 544C155.72 544 155.197 544 154.677 544C154.158 544 153.641 544 153.127 544C152.613 544 152.102 544 151.593 544C151.085 544 150.579 544 150.077 544C149.574 544 149.074 544 148.577 544C148.08 544 147.586 544 147.095 544C146.604 544 146.115 544 145.63 544C145.144 544 144.662 544 144.182 544C143.702 544 143.225 544 142.751 544C142.278 544 141.807 544 141.338 544C140.87 544 140.405 544 139.943 544C139.48 544 139.021 544 138.565 544C138.108 544 137.655 544 137.204 544C136.753 544 136.306 544 135.861 544C135.416 544 134.975 544 134.536 544C134.097 544 133.661 544 133.228 544C132.795 544 132.365 544 131.938 544C131.511 544 131.087 544 130.666 544C130.245 544 129.827 544 129.412 544C128.997 544 128.585 544 128.176 544C127.767 544 127.361 544 126.958 544C126.555 544 126.155 544 125.758 544C125.361 544 124.967 544 124.576 544C124.186 544 123.798 544 123.413 544C123.028 544 122.646 544 122.267 544C121.889 544 121.513 544 121.14 544C120.768 544 120.398 544 120.032 544C119.665 544 119.302 544 118.941 544C118.581 544 118.224 544 117.869 544C117.515 544 117.164 544 116.816 544C116.468 544 116.123 544 115.781 544C115.439 544 115.101 544 114.765 544C114.43 544 114.097 544 113.768 544C113.438 544 113.112 544 112.789 544C112.466 544 112.146 544 111.829 544C111.513 544 111.199 544 110.888 544C110.578 544 110.271 544 109.966 544C109.662 544 109.361 544 109.063 544C108.766 544 108.471 544 108.179 544C107.888 544 107.6 544 107.315 544C107.029 544 106.748 544 106.469 544C106.19 544 105.915 544 105.642 544C105.37 544 105.101 544 104.835 544C104.569 544 104.307 544 104.047 544C103.788 544 103.532 544 103.279 544C103.026 544 102.776 544 102.53 544C102.283 544 102.04 544 101.8 544C101.56 544 101.324 544 101.09 544C100.857 544 100.627 544 100.4 544C100.173 544 99.9496 544 99.7293 544C99.509 544 99.2921 544 99.0784 544C98.8647 544 98.6543 544 98.4472 544C98.2402 544 98.0364 544 97.8359 544C97.6355 544 97.4384 544 97.2445 544C97.0507 544 96.8603 544 96.6731 544C96.486 544 96.3022 544 96.1217 544C95.9413 544 95.7642 544 95.5904 544C95.4166 544 95.2462 544 95.0792 544C94.9122 544 94.7485 544 94.5882 544C94.4279 544 94.271 544 94.1175 544C93.9639 544 93.8138 544 93.667 544C93.5203 544 93.3769 544 93.2369 544C93.097 544 92.9604 544 92.8273 544C92.6941 544 92.5644 544 92.4381 544C92.3118 544 92.1889 544 92.0695 544C91.95 544 91.834 544 91.7214 544C91.6088 544 91.4997 544 91.394 544C91.2883 544 91.1861 544 91.0873 544C90.9885 544 90.8932 544 90.8014 544C90.7096 544 90.6212 544 90.5363 544C90.4514 544 90.37 544 90.2921 544C90.2141 544 90.1397 544 90.0688 544C89.9978 544 89.9304 544 89.8665 544C89.8026 544 89.7421 544 89.6852 544C89.6283 544 89.575 544 89.5251 544C89.4753 544 89.4289 544 89.3861 544C89.3433 544 89.3041 544 89.2684 544C89.2327 544 89.2005 544 89.1719 544C89.1433 544 89.1183 544 89.0968 544C89.0753 544 89.0574 544 89.0431 544C89.0287 544 89.018 544 89.0108 544C89.0036 544 89 544 89 546C89 548 89.0036 548 89.0108 548C89.018 548 89.0287 548 89.0431 548C89.0574 548 89.0753 548 89.0968 548C89.1183 548 89.1433 548 89.1719 548C89.2005 548 89.2327 548 89.2684 548C89.3041 548 89.3433 548 89.3861 548C89.4289 548 89.4753 548 89.5251 548C89.575 548 89.6283 548 89.6852 548C89.7421 548 89.8026 548 89.8665 548C89.9304 548 89.9978 548 90.0688 548C90.1397 548 90.2141 548 90.2921 548C90.37 548 90.4514 548 90.5363 548C90.6212 548 90.7096 548 90.8014 548C90.8932 548 90.9885 548 91.0873 548C91.1861 548 91.2883 548 91.394 548C91.4997 548 91.6088 548 91.7214 548C91.834 548 91.95 548 92.0695 548C92.1889 548 92.3118 548 92.4381 548C92.5644 548 92.6941 548 92.8273 548C92.9604 548 93.097 548 93.2369 548C93.3769 548 93.5203 548 93.667 548C93.8138 548 93.9639 548 94.1175 548C94.271 548 94.4279 548 94.5882 548C94.7485 548 94.9122 548 95.0792 548C95.2462 548 95.4166 548 95.5904 548C95.7642 548 95.9413 548 96.1217 548C96.3022 548 96.486 548 96.6731 548C96.8603 548 97.0507 548 97.2445 548C97.4384 548 97.6355 548 97.8359 548C98.0364 548 98.2402 548 98.4472 548C98.6543 548 98.8647 548 99.0784 548C99.2921 548 99.509 548 99.7293 548C99.9496 548 100.173 548 100.4 548C100.627 548 100.857 548 101.09 548C101.324 548 101.56 548 101.8 548C102.04 548 102.283 548 102.53 548C102.776 548 103.026 548 103.279 548C103.532 548 103.788 548 104.047 548C104.307 548 104.569 548 104.835 548C105.101 548 105.37 548 105.642 548C105.915 548 106.19 548 106.469 548C106.748 548 107.029 548 107.315 548C107.6 548 107.888 548 108.179 548C108.471 548 108.766 548 109.063 548C109.361 548 109.662 548 109.966 548C110.271 548 110.578 548 110.888 548C111.199 548 111.513 548 111.829 548C112.146 548 112.466 548 112.789 548C113.112 548 113.438 548 113.768 548C114.097 548 114.43 548 114.765 548C115.101 548 115.439 548 115.781 548C116.123 548 116.468 548 116.816 548C117.164 548 117.515 548 117.869 548C118.224 548 118.581 548 118.941 548C119.302 548 119.665 548 120.032 548C120.398 548 120.768 548 121.14 548C121.513 548 121.889 548 122.267 548C122.646 548 123.028 548 123.413 548C123.798 548 124.186 548 124.576 548C124.967 548 125.361 548 125.758 548C126.155 548 126.555 548 126.958 548C127.361 548 127.767 548 128.176 548C128.585 548 128.997 548 129.412 548C129.827 548 130.245 548 130.666 548C131.087 548 131.511 548 131.938 548C132.365 548 132.795 548 133.228 548C133.661 548 134.097 548 134.536 548C134.975 548 135.416 548 135.861 548C136.306 548 136.753 548 137.204 548C137.655 548 138.108 548 138.565 548C139.021 548 139.48 548 139.943 548C140.405 548 140.87 548 141.338 548C141.807 548 142.278 548 142.751 548C143.225 548 143.702 548 144.182 548C144.662 548 145.144 548 145.63 548C146.115 548 146.604 548 147.095 548C147.586 548 148.08 548 148.577 548C149.074 548 149.574 548 150.077 548C150.579 548 151.085 548 151.593 548C152.102 548 152.613 548 153.127 548C153.641 548 154.158 548 154.677 548C155.197 548 155.72 548 156.245 548C156.77 548 157.298 548 157.829 548C158.36 548 158.894 548 159.43 548C159.967 548 160.506 548 161.048 548C161.59 548 162.135 548 162.683 548C163.231 548 163.781 548 164.334 548C164.888 548 165.443 548 166.002 548C166.561 548 167.122 548 167.687 548C168.251 548 168.818 548 169.387 548C169.957 548 170.53 548 171.105 548C171.68 548 172.258 548 172.838 548C173.419 548 174.002 548 174.588 548C175.174 548 175.763 548 176.355 548C176.946 548 177.54 548 178.137 548C178.734 548 179.333 548 179.935 548C180.538 548 181.142 548 181.75 548C182.358 548 182.968 548 183.581 548C184.193 548 184.809 548 185.427 548C186.045 548 186.666 548 187.29 548C187.913 548 188.539 548 189.168 548C189.797 548 190.428 548 191.062 548C191.696 548 192.332 548 192.972 548C193.611 548 194.253 548 194.897 548C195.542 548 196.189 548 196.838 548C197.488 548 198.14 548 198.795 548C199.45 548 200.107 548 200.767 548C201.427 548 202.089 548 202.755 548C203.42 548 204.087 548 204.757 548C205.428 548 206.1 548 206.776 548C207.451 548 208.129 548 208.809 548C209.49 548 210.173 548 210.858 548C211.544 548 212.231 548 212.922 548C213.612 548 214.305 548 215.001 548C215.696 548 216.394 548 217.095 548C217.796 548 218.499 548 219.204 548C219.91 548 220.618 548 221.328 548C222.038 548 222.751 548 223.467 548C224.182 548 224.9 548 225.62 548C226.341 548 227.064 548 227.789 548C228.514 548 229.242 548 229.972 548C230.702 548 231.435 548 232.17 548C232.905 548 233.642 548 234.382 548C235.122 548 235.864 548 236.609 548C237.353 548 238.1 548 238.85 548C239.599 548 240.351 548 241.106 548C241.86 548 242.617 548 243.376 548C244.135 548 244.896 548 245.66 548C246.424 548 247.19 548 247.959 548C248.727 548 249.498 548 250.271 548C251.045 548 251.82 548 252.598 548C253.376 548 254.157 548 254.939 548C255.722 548 256.507 548 257.294 548C258.082 548 258.871 548 259.663 548C260.455 548 261.249 548 262.046 548C262.843 548 263.641 548 264.443 548C265.244 548 266.047 548 266.853 548C267.659 548 268.467 548 269.277 548C270.087 548 270.9 548 271.715 548C272.53 548 273.347 548 274.166 548C274.986 548 275.807 548 276.631 548C277.455 548 278.281 548 279.11 548C279.938 548 280.769 548 281.602 548C282.435 548 283.27 548 284.107 548C284.944 548 285.784 548 286.626 548C287.467 548 288.311 548 289.157 548C290.004 548 290.852 548 291.703 548C292.553 548 293.406 548 294.261 548C295.116 548 295.973 548 296.832 548C297.691 548 298.553 548 299.416 548C300.28 548 301.146 548 302.014 548C302.882 548 303.752 548 304.624 548C305.496 548 306.371 548 307.247 548C308.124 548 309.002 548 309.883 548C310.764 548 311.647 548 312.532 548C313.417 548 314.304 548 315.193 548C316.082 548 316.974 548 317.867 548C318.76 548 319.656 548 320.554 548C321.451 548 322.351 548 323.253 548C324.155 548 325.058 548 325.964 548C326.87 548 327.778 548 328.688 548C329.598 548 330.51 548 331.425 548C332.339 548 333.255 548 334.173 548C335.091 548 336.012 548 336.934 548C337.856 548 338.781 548 339.707 548C340.633 548 341.562 548 342.492 548C343.423 548 344.355 548 345.289 548C346.224 548 347.16 548 348.099 548C349.037 548 349.977 548 350.92 548C351.862 548 352.806 548 353.753 548C354.699 548 355.647 548 356.598 548C357.548 548 358.5 548 359.454 548C360.408 548 361.365 548 362.323 548C363.281 548 364.241 548 365.203 548C366.165 548 367.129 548 368.094 548C369.06 548 370.028 548 370.997 548C371.967 548 372.939 548 373.912 548C374.886 548 375.861 548 376.838 548C377.816 548 378.795 548 379.776 548C380.757 548 381.74 548 382.725 548C383.709 548 384.696 548 385.685 548C386.673 548 387.664 548 388.656 548C389.648 548 390.642 548 391.638 548C392.634 548 393.632 548 394.632 548C395.631 548 396.633 548 397.636 548C398.64 548 399.645 548 400.652 548C401.659 548 402.668 548 403.678 548C404.689 548 405.701 548 406.715 548C407.73 548 408.746 548 409.764 548C410.781 548 411.801 548 412.822 548C413.844 548 414.867 548 415.892 548C416.917 548 417.944 548 418.972 548C420 548 421.031 548 422.063 548C423.095 548 424.128 548 425.164 548C426.199 548 427.237 548 428.276 548C429.315 548 430.355 548 431.398 548C432.44 548 433.484 548 434.53 548C435.576 548 436.624 548 437.673 548C438.722 548 439.773 548 440.826 548C441.879 548 442.933 548 443.989 548C445.045 548 446.103 548 447.162 548C448.222 548 449.283 548 450.346 548C451.408 548 452.473 548 453.539 548C454.605 548 455.673 548 456.742 548C457.812 548 458.883 548 459.955 548C461.028 548 462.102 548 463.178 548C464.254 548 465.332 548 466.411 548C467.49 548 468.571 548 469.653 548C470.736 548 471.82 548 472.906 548C473.991 548 475.078 548 476.167 548C477.256 548 478.346 548 479.438 548C480.53 548 481.624 548 482.719 548C483.814 548 484.911 548 486.009 548C487.108 548 488.208 548 489.309 548C490.41 548 491.513 548 492.618 548C493.722 548 494.828 548 495.936 548C497.043 548 498.153 548 499.263 548C500.374 548 501.486 548 502.6 548C503.713 548 504.828 548 505.945 548C507.062 548 508.18 548 509.3 548C510.419 548 511.541 548 512.663 548C513.786 548 514.91 548 516.036 548C517.161 548 518.288 548 519.417 548C520.546 548 521.676 548 522.807 548C523.939 548 525.072 548 526.206 548C527.34 548 528.476 548 529.614 548C530.751 548 531.89 548 533.03 548C534.17 548 535.311 548 536.454 548C537.597 548 538.742 548 539.888 548C541.033 548 542.181 548 543.329 548C544.478 548 545.628 548 546.779 548C547.931 548 549.084 548 550.238 548C551.392 548 552.548 548 553.705 548C554.862 548 556.02 548 557.18 548C558.339 548 559.5 548 560.663 548C561.825 548 562.989 548 564.154 548C565.319 548 566.485 548 567.653 548C568.821 548 569.99 548 571.16 548C572.331 548 573.503 548 574.676 548C575.849 548 577.023 548 578.199 548C579.374 548 580.551 548 581.73 548C582.908 548 584.087 548 585.268 548C586.449 548 587.631 548 588.815 548C589.998 548 591.183 548 592.369 548C593.555 548 594.742 548 595.93 548C597.119 548 598.309 548 599.5 548C600.691 548 601.883 548 603.076 548C604.27 548 605.464 548 606.66 548C607.856 548 609.053 548 610.252 548C611.45 548 612.65 548 613.851 548C615.051 548 616.253 548 617.457 548C618.66 548 619.864 548 621.07 548C622.275 548 623.482 548 624.69 548C625.898 548 627.107 548 628.318 548C629.528 548 630.739 548 631.952 548C633.165 548 634.379 548 635.594 548C636.809 548 638.025 548 639.242 548C640.459 548 641.678 548 642.897 548C644.117 548 645.337 548 646.559 548C647.781 548 649.004 548 650.228 548C651.452 548 652.677 548 653.903 548C655.129 548 656.357 548 657.585 548C658.814 548 660.043 548 661.274 548C662.504 548 663.736 548 664.969 548C666.202 548 667.436 548 668.67 548C669.905 548 671.141 548 672.378 548C673.615 548 674.854 548 676.093 548C677.332 548 678.572 548 679.813 548C681.055 548 682.297 548 683.54 548C684.783 548 686.028 548 687.273 548C688.518 548 689.765 548 691.012 548C692.259 548 693.508 548 694.757 548C696.007 548 697.257 548 698.508 548C699.76 548 701.012 548 702.265 548C703.519 548 704.773 548 706.028 548C707.284 548 708.54 548 709.797 548C711.054 548 712.312 548 713.572 548C714.831 548 716.091 548 717.352 548C718.613 548 719.875 548 721.138 548C722.401 548 723.664 548 724.929 548C726.194 548 727.459 548 728.726 548C729.993 548 731.26 548 732.529 548C733.797 548 735.066 548 736.336 548C737.607 548 738.878 548 740.15 548C741.422 548 742.694 548 743.968 548C745.242 548 746.517 548 747.792 548C749.068 548 750.344 548 751.621 548C752.898 548 754.176 548 755.455 548C756.734 548 758.014 548 759.294 548C760.575 548 761.856 548 763.139 548C764.421 548 765.704 548 766.988 548C768.272 548 769.556 548 770.842 548C772.127 548 773.414 548 774.701 548C775.988 548 777.276 548 778.565 548C779.853 548 781.143 548 782.433 548C783.723 548 785.014 548 786.306 548C787.598 548 788.891 548 790.184 548C791.477 548 792.771 548 794.066 548C795.361 548 796.657 548 797.953 548C799.25 548 800.547 548 801.844 548C803.142 548 804.441 548 805.74 548C807.039 548 808.339 548 809.64 548C810.941 548 812.242 548 813.544 548C814.846 548 816.149 548 817.453 548C818.756 548 820.061 548 821.366 548C822.67 548 823.976 548 825.282 548C826.589 548 827.896 548 829.203 548C830.511 548 831.819 548 833.128 548C834.437 548 835.746 548 837.057 548C838.367 548 839.678 548 840.989 548C842.301 548 843.613 548 844.926 548C846.238 548 847.552 548 848.866 548C850.18 548 851.495 548 852.81 548C854.125 548 855.441 548 856.757 548C858.074 548 859.391 548 860.708 548C862.026 548 863.344 548 864.663 548C865.982 548 867.301 548 868.621 548C869.941 548 871.262 548 872.583 548C873.904 548 875.225 548 876.548 548C877.87 548 879.193 548 880.516 548C881.839 548 883.163 548 884.487 548C885.812 548 887.137 548 888.462 548C889.787 548 891.113 548 892.44 548C893.766 548 895.093 548 896.421 548C897.748 548 899.076 548 900.404 548C901.733 548 903.062 548 904.391 548C905.721 548 907.051 548 908.381 548C909.711 548 911.042 548 912.374 548C913.705 548 915.037 548 916.369 548C917.701 548 919.034 548 920.367 548C921.7 548 923.034 548 924.368 548C925.702 548 927.036 548 928.371 548C929.706 548 931.041 548 932.377 548C933.713 548 935.049 548 936.385 548C937.722 548 939.059 548 940.396 548C941.734 548 943.071 548 944.41 548C945.748 548 947.086 548 948.425 548C949.764 548 951.103 548 952.443 548C953.783 548 955.123 548 956.463 548C957.804 548 959.144 548 960.485 548C961.826 548 963.168 548 964.51 548C965.852 548 967.194 548 968.536 548C969.879 548 971.221 548 972.564 548C973.908 548 975.251 548 976.595 548C977.938 548 979.283 548 980.627 548C981.971 548 983.316 548 984.661 548C986.006 548 987.351 548 988.697 548C990.042 548 991.388 548 992.734 548C994.08 548 995.426 548 996.773 548C998.12 548 999.467 548 1000.81 548C1002.16 548 1003.51 548 1004.86 548C1006.2 548 1007.55 548 1008.9 548C1010.25 548 1011.6 548 1012.94 548C1014.29 548 1015.64 548 1016.99 548C1018.34 548 1019.69 548 1021.04 548C1022.39 548 1023.74 548 1025.09 548C1026.44 548 1027.79 548 1029.14 548C1030.49 548 1031.84 548 1033.19 548C1034.54 548 1035.89 548 1037.24 548C1038.59 548 1039.94 548 1041.29 548C1042.65 548 1044 548 1045.35 548C1046.7 548 1048.05 548 1049.4 548C1050.76 548 1052.11 548 1053.46 548C1054.81 548 1056.16 548 1057.52 548C1058.87 548 1060.22 548 1061.57 548C1062.93 548 1064.28 548 1065.63 548C1066.99 548 1068.34 548 1069.69 548C1071.04 548 1072.4 548 1073.75 548C1075.1 548 1076.46 548 1077.81 548C1079.16 548 1080.52 548 1081.87 548C1083.23 548 1084.58 548 1085.93 548C1087.29 548 1088.64 548 1089.99 548C1091.35 548 1092.7 548 1094.05 548C1095.41 548 1096.76 548 1098.12 548C1099.47 548 1100.82 548 1102.18 548C1103.53 548 1104.89 548 1106.24 548C1107.59 548 1108.95 548 1110.3 548C1111.66 548 1113.01 548 1114.36 548C1115.72 548 1117.07 548 1118.42 548C1119.78 548 1121.13 548 1122.49 548C1123.84 548 1125.19 548 1126.55 548C1127.9 548 1129.26 548 1130.61 548C1131.96 548 1133.32 548 1134.67 548C1136.02 548 1137.38 548 1138.73 548C1140.08 548 1141.44 548 1142.79 548C1144.14 548 1145.5 548 1146.85 548C1148.2 548 1149.56 548 1150.91 548C1152.26 548 1153.61 548 1154.97 548C1156.32 548 1157.67 548 1159.03 548C1160.38 548 1161.73 548 1163.08 548C1164.43 548 1165.79 548 1167.14 548C1168.49 548 1169.84 548 1171.19 548C1172.55 548 1173.9 548 1175.25 548C1176.6 548 1177.95 548 1179.3 548C1180.65 548 1182 548 1183.36 548C1184.71 548 1186.06 548 1187.41 548C1188.76 548 1190.11 548 1191.46 548C1192.81 548 1194.16 548 1195.51 548C1196.86 548 1198.21 548 1199.55 548C1200.9 548 1202.25 548 1203.6 548C1204.95 548 1206.3 548 1207.65 548C1209 548 1210.34 548 1211.69 548C1213.04 548 1214.39 548 1215.73 548C1217.08 548 1218.43 548 1219.78 548C1221.12 548 1222.47 548 1223.82 548C1225.16 548 1226.51 548 1227.85 548C1229.2 548 1230.54 548 1231.89 548C1233.23 548 1234.58 548 1235.92 548C1237.27 548 1238.61 548 1239.96 548C1241.3 548 1242.64 548 1243.99 548C1245.33 548 1246.67 548 1248.02 548C1249.36 548 1250.7 548 1252.04 548C1253.39 548 1254.73 548 1256.07 548C1257.41 548 1258.75 548 1260.09 548C1261.43 548 1262.77 548 1264.11 548C1265.45 548 1266.79 548 1268.13 548C1269.47 548 1270.81 548 1272.15 548C1273.49 548 1274.82 548 1276.16 548C1277.5 548 1278.84 548 1280.17 548C1281.51 548 1282.85 548 1284.18 548C1285.52 548 1286.85 548 1288.19 548C1289.53 548 1290.86 548 1292.19 548C1293.53 548 1294.86 548 1296.2 548C1297.53 548 1298.86 548 1300.2 548C1301.53 548 1302.86 548 1304.19 548C1305.52 548 1306.85 548 1308.19 548C1309.52 548 1310.85 548 1312.18 548C1313.51 548 1314.83 548 1316.16 548C1317.49 548 1318.82 548 1320.15 548C1321.48 548 1322.8 548 1324.13 548C1325.46 548 1326.78 548 1328.11 548C1329.44 548 1330.76 548 1332.09 548C1333.41 548 1334.73 548 1336.06 548C1337.38 548 1338.7 548 1340.03 548C1341.35 548 1342.67 548 1343.99 548C1345.31 548 1346.64 548 1347.96 548C1349.28 548 1350.6 548 1351.92 548C1353.23 548 1354.55 548 1355.87 548C1357.19 548 1358.51 548 1359.82 548C1361.14 548 1362.46 548 1363.77 548C1365.09 548 1366.4 548 1367.72 548C1369.03 548 1370.35 548 1371.66 548C1372.97 548 1374.29 548 1375.6 548C1376.91 548 1378.22 548 1379.53 548C1380.84 548 1382.15 548 1383.46 548C1384.77 548 1386.08 548 1387.39 548C1388.7 548 1390 548 1391.31 548C1392.62 548 1393.92 548 1395.23 548C1396.53 548 1397.84 548 1399.14 548C1400.45 548 1401.75 548 1403.05 548C1404.35 548 1405.66 548 1406.96 548C1408.26 548 1409.56 548 1410.86 548C1412.16 548 1413.46 548 1414.76 548C1416.05 548 1417.35 548 1418.65 548C1419.95 548 1421.24 548 1422.54 548C1423.83 548 1425.13 548 1426.42 548C1427.72 548 1429.01 548 1430.3 548C1431.59 548 1432.89 548 1434.18 548C1435.47 548 1436.76 548 1438.05 548C1439.34 548 1440.62 548 1441.91 548C1443.2 548 1444.49 548 1445.77 548C1447.06 548 1448.34 548 1449.63 548C1450.91 548 1452.2 548 1453.48 548C1454.76 548 1456.04 548 1457.33 548C1458.61 548 1459.89 548 1461.17 548C1462.45 548 1463.72 548 1465 548C1466.28 548 1467.56 548 1468.83 548C1470.11 548 1471.38 548 1472.66 548C1473.93 548 1475.21 548 1476.48 548C1477.75 548 1479.02 548 1480.29 548C1481.57 548 1482.84 548 1484.1 548C1485.37 548 1486.64 548 1487.91 548C1489.18 548 1490.44 548 1491.71 548C1492.97 548 1494.24 548 1495.5 548C1496.76 548 1498.03 548 1499.29 548C1500.55 548 1501.81 548 1503.07 548C1504.33 548 1505.59 548 1506.85 548C1508.11 548 1509.36 548 1510.62 548C1511.87 548 1513.13 548 1514.38 548C1515.64 548 1516.89 548 1518.14 548C1519.39 548 1520.65 548 1521.9 548C1523.15 548 1524.4 548 1525.64 548C1526.89 548 1528.14 548 1529.38 548C1530.63 548 1531.88 548 1533.12 548C1534.36 548 1535.61 548 1536.85 548C1538.09 548 1539.33 548 1540.57 548C1541.81 548 1543.05 548 1544.29 548C1545.53 548 1546.76 548 1548 548C1549.23 548 1550.47 548 1551.7 548C1552.94 548 1554.17 548 1555.4 548C1556.63 548 1557.86 548 1559.09 548C1560.32 548 1561.55 548 1562.77 548C1564 548 1565.23 548 1566.45 548C1567.68 548 1568.9 548 1570.12 548C1571.35 548 1572.57 548 1573.79 548C1575.01 548 1576.23 548 1577.45 548C1578.66 548 1579.88 548 1581.1 548C1582.31 548 1583.53 548 1584.74 548C1585.95 548 1587.17 548 1588.38 548C1589.59 548 1590.8 548 1592.01 548C1593.22 548 1594.42 548 1595.63 548C1596.84 548 1598.04 548 1599.25 548C1600.45 548 1601.65 548 1602.85 548C1604.06 548 1605.26 548 1606.46 548C1607.66 548 1608.85 548 1610.05 548C1611.25 548 1612.44 548 1613.64 548C1614.83 548 1616.02 548 1617.22 548C1618.41 548 1619.6 548 1620.79 548C1621.98 548 1623.17 548 1624.35 548C1625.54 548 1626.73 548 1627.91 548C1629.09 548 1630.28 548 1631.46 548C1632.64 548 1633.82 548 1635 548V544ZM88.8826 544.003C76.4027 544.738 57.698 542.495 42.1925 533.483C26.8199 524.549 14.5 508.93 14.5 482.5H10.5C10.5 510.47 23.6801 527.351 40.1825 536.942C56.552 546.455 76.0973 548.762 89.1174 547.997L88.8826 544.003ZM1635.11 547.997C1648.19 547.266 1667.84 550.328 1684.16 561.823C1700.37 573.238 1713.5 593.111 1713.5 626.5H1717.5C1717.5 591.889 1703.8 570.762 1686.46 558.552C1669.24 546.422 1648.64 543.234 1634.89 544.003L1635.11 547.997ZM1713.5 626.5V1280.5H1717.5V626.5H1713.5ZM10.5 12V482.5H14.5V12H10.5Z" fill="#36283D"/>
</svg>
